<svg xmlns="http://www.w3.org/2000/svg" viewBox="0 0 1529.3 351.8"><title>Asset 3</title><path d="M108.8,132.2A127.9,127.9,0,0,1,93,138.6a113.3,113.3,0,0,1-14.8,3.5c-5,.9-10,1.5-15,1.9l-16,1a10.6,10.6,0,0,1-2.4.1,7.6,7.6,0,0,0-2.7.3q0,5.3-.3,10.2a71.5,71.5,0,0,0,.3,11.1c.1,1.9.2,4,.3,6.1a56.8,56.8,0,0,0,.4,6.1,27,27,0,0,0,.9,4.9,4,4,0,0,0,1.8,2.7,2,2,0,0,1,1.5,2.2,2.2,2.2,0,0,1-1.9,2,48,48,0,0,0-7.5,1.7l-8,2.4-9.1,3a1.9,1.9,0,0,1-1.9-.2,1.8,1.8,0,0,1-.9-1.6v-1.2c.5-4.8,1-8.8,1.3-12.1s.6-6.8.9-10.5.4-6.7.4-9.1V112.3c0-5.1,0-10.3-.2-15.7A79.3,79.3,0,0,0,18.3,81v.2a29.4,29.4,0,0,0-2.7-7.3A28.7,28.7,0,0,0,11.8,69a29,29,0,0,0-4-3.4L4.5,63.5A10.4,10.4,0,0,1,.2,60.4a2.1,2.1,0,0,1,0-1.9,2.3,2.3,0,0,1,1.4-1.3l10.6-3.3L23,50.5c8.5-3,17.1-5.7,25.8-8.2a96.7,96.7,0,0,1,25.8-3.6,35.2,35.2,0,0,1,12.1,2.6,144.4,144.4,0,0,1,14.7,6.9l-.6,2.5-2.6,2.8L95.7,56,91,61.5a45.7,45.7,0,0,0-4.8,6.9A2.5,2.5,0,0,1,84,69.7a2.1,2.1,0,0,1-1.9-1.8,15.2,15.2,0,0,0-4.7-7.4,30.9,30.9,0,0,0-7.9-5.2,42.8,42.8,0,0,0-9.2-2.9,46.5,46.5,0,0,0-8.5-.9,20.3,20.3,0,0,0-5.5.8,52.1,52.1,0,0,0-5.4,2,24.2,24.2,0,0,0-.4,4.7v4.7c0,2,0,5.4.2,10.2s.3,10.1.5,15.8l.6,16.9c.2,5.5.3,10,.5,13.4s.2,5.2.2,5.5l11.8,1.3,10.1.9c3.6.3,6.6.4,9.2.4h9.1l9.2-.3,8.1-.2a62.1,62.1,0,0,1,7.9.4,2.2,2.2,0,0,1,2,1.8A2.3,2.3,0,0,1,108.8,132.2Z" fill="#fff"/><path d="M225.6,102.7q0,18.1-6,30a51.8,51.8,0,0,1-15.7,19,62.4,62.4,0,0,1-22.5,10.1,118.6,118.6,0,0,1-26.1,2.9,30.3,30.3,0,0,1-18.1-5.5,46.9,46.9,0,0,1-12.9-14,66.1,66.1,0,0,1-7.8-18.9,82.3,82.3,0,0,1,1.7-47.5,55.4,55.4,0,0,1,12.3-20,52.9,52.9,0,0,1,18.8-12.3,66.6,66.6,0,0,1,24.1-4.2c17.5,0,30.6,5.2,39.2,15.6S225.6,83.2,225.6,102.7Zm-25.2,12.4a143.5,143.5,0,0,0-1.6-20.5,92.2,92.2,0,0,0-5.6-21.4,48.1,48.1,0,0,0-10.5-16.6,21.7,21.7,0,0,0-16.4-6.7c-5.7,0-10.4,1.5-13.9,4.6a33.4,33.4,0,0,0-8.6,11.8A55.8,55.8,0,0,0,139.6,82a118.4,118.4,0,0,0-1.2,16.4,72.2,72.2,0,0,0,2.8,19.8,63.5,63.5,0,0,0,7.9,18,45.6,45.6,0,0,0,12.5,13.3,28.4,28.4,0,0,0,16.7,5c4.7,0,8.5-1.2,11.5-3.6a24.8,24.8,0,0,0,6.7-9.4,48.2,48.2,0,0,0,3.1-12.7A105.9,105.9,0,0,0,200.4,115.1Z" fill="#fff"/><path d="M376.9,46.2c-1.2,2.2-2.5,4.3-3.9,6.5s-2.8,4.3-4.3,6.5l-3.2,5.3-3.1,5.3a2.4,2.4,0,0,1-2.2,1.4c-.8,0-1.3-.5-1.6-1.6a60.7,60.7,0,0,0-4.1-9,7.7,7.7,0,0,0-7.1-4.2c-3.3,0-6.6,1.5-10,4.5A71,71,0,0,0,327.8,72a88.9,88.9,0,0,0-7.9,13.6,61.8,61.8,0,0,0-4.6,12.2c1.2,2.6,2.7,5.8,4.6,9.5s3.9,7.6,6.2,11.8,4.7,8.2,7.3,12.3a95.7,95.7,0,0,0,7.9,10.9,50.9,50.9,0,0,0,8.2,8,14,14,0,0,0,8.1,3,16.5,16.5,0,0,0,4.9-.8l5-1.4,2.3-.8a2,2,0,0,1,2,.2,2.2,2.2,0,0,1,.8,1.8l.4,2.6a2,2,0,0,1-1.4,2.1l-11.5,3.2c-3.2.8-6.5,1.6-10,2.3a53.8,53.8,0,0,1-8.8,1,22.5,22.5,0,0,1-12.2-3.4,43.8,43.8,0,0,1-10-8.3,70.8,70.8,0,0,1-7.8-10.8c-2.2-3.8-4.1-7.3-5.8-10.4a37.2,37.2,0,0,0-2-4l-1.8-3c-2.5,4.2-5.5,9.3-9.1,15.1s-7.6,11.9-12,18.4-9.1,12.8-14,19A212,212,0,0,1,251.5,193a89.3,89.3,0,0,1-15.4,12.1c-5.1,3-9.9,4.5-14.5,4.5a2.2,2.2,0,0,1-2.2-1.5,2,2,0,0,1,1-2.5l3-1.9a82.6,82.6,0,0,0,20.7-17.8,225.6,225.6,0,0,0,18.5-24.6c5.9-9,11.2-18.2,16.1-27.6s9.3-18.2,13.4-26.3a201,201,0,0,0-10.2-24.2,192.5,192.5,0,0,0-12.8-22.4,29.5,29.5,0,0,0-5.9-6.5,19,19,0,0,0-7.1-4h-1.6a41.8,41.8,0,0,0-5.1-.2q-2.4,0-2.4-2.7c0-.8.9-1.5,2.8-2.2a49,49,0,0,1,6.4-1.8l6.9-1.2,4.6-.5c6.9,0,12.6,2,17,5.8a71,71,0,0,1,12.5,15c1.1,1.7,2.4,4,4.1,6.8s2.9,5.1,3.9,7l1.7,3.2a115.1,115.1,0,0,1,5.8-10.4,54.2,54.2,0,0,1,11-12.4,63.4,63.4,0,0,1,17.4-10.2c6.9-2.8,15.2-4,24.8-3.6h8.9A2.5,2.5,0,0,1,377,44,1.8,1.8,0,0,1,376.9,46.2Z" fill="#fff"/><path d="M527.5,46a4.4,4.4,0,0,1-.2,1,1,1,0,0,1-.6.8,11.4,11.4,0,0,1-3.7,1.9h.2l-1.8,1.2a5.4,5.4,0,0,0-1.4,2,31,31,0,0,0-1.9,9.3c-.4,3.7-.6,7.3-.8,10.8,0,1.1,0,2.3-.1,3.5a15.1,15.1,0,0,1-.3,3.2V108c0,4.7.1,9.9.3,15.4a144.6,144.6,0,0,0,1.3,15.6,57,57,0,0,0,2.7,12.2c1.2,3.3,2.8,5.1,4.9,5.4s1.5,1,1.4,2.3-.7,1.9-1.8,1.9l-10.2-.2a63.8,63.8,0,0,0-8.7.3,73,73,0,0,0-8.6,1.6c-1.9.5-2.9.1-3.1-1.2a10.1,10.1,0,0,1,.1-3.9v.2c.1-1.1.2-2.2.2-3.5s.1-2.3.2-3.4a12.4,12.4,0,0,1-2.4,1.6,50.9,50.9,0,0,1-15,7,62.3,62.3,0,0,1-16.6,2.2,43.2,43.2,0,0,1-18.7-4,40.6,40.6,0,0,1-13.7-10.9,47.6,47.6,0,0,1-8.4-16.5,72.3,72.3,0,0,1-2.9-20.9,85.3,85.3,0,0,1,4.6-28.8,60,60,0,0,1,12.9-21,54.4,54.4,0,0,1,19.7-12.9,70.2,70.2,0,0,1,25.2-4.4,114.1,114.1,0,0,1,11.6.6,29.3,29.3,0,0,1,11.2,3.5l6.7,3.7,3.3-2a22,22,0,0,0,3-1.9l4-2.5a13.5,13.5,0,0,1,4.2-2,2.2,2.2,0,0,1,2.1.2,1.9,1.9,0,0,1,.9,1.6ZM497,103.7V96.6c0-2.4-.1-4.7-.2-6.9s0-3.4-.1-5-.1-3-.1-4.4c0-10-1.8-17.6-5.4-22.7s-9.8-7.7-18.8-7.7A20.5,20.5,0,0,0,458.2,55a37.4,37.4,0,0,0-9,12.9,69.6,69.6,0,0,0-4.5,17,121.9,121.9,0,0,0-1.4,17.4,63,63,0,0,0,2.4,17.1,53,53,0,0,0,6.7,15.3,36.7,36.7,0,0,0,10.7,11.1,25.4,25.4,0,0,0,14.4,4.3,13.6,13.6,0,0,0,10.4-4.2,29.1,29.1,0,0,0,5.9-10.9,70.9,70.9,0,0,0,2.6-14.9C496.8,114.6,497,109.1,497,103.7Z" fill="#fff"/><path d="M651.9,157.6a2.1,2.1,0,0,1,.9,2.7,1.6,1.6,0,0,1-2.1,1.4,55.7,55.7,0,0,0-6.1-1.3c-2.6-.4-5.4-.6-8.3-.8a69.8,69.8,0,0,0-9.1.3,26.8,26.8,0,0,0-8,2.2,1.5,1.5,0,0,1-1.7-.4,2.9,2.9,0,0,1-.8-1.9q0-7.5.3-15c.3-5,.5-10,.8-14.9.1-2.4.2-5.4.4-9s.2-7.2.4-11l.3-11c0-3.5.1-6.6.1-9A26.4,26.4,0,0,0,613.2,73a50.9,50.9,0,0,0-14.4-11.9,83.7,83.7,0,0,0-18.6-7.3,135.1,135.1,0,0,0-18.3-3.5,65.7,65.7,0,0,0-.4,6.8c-.2,3.3-.3,6.8-.4,10.4s-.1,7.1-.2,10.3-.1,5.3-.1,6.4v42.1a44.2,44.2,0,0,0,3.3,17.4,50.3,50.3,0,0,0,9.1,14.3,1.9,1.9,0,0,1,.4,2.1c-.2.8-.8,1.2-1.8,1.4a8.8,8.8,0,0,1-5.2-1,11.2,11.2,0,0,0-5.4-1.1l-10.7.7a46.2,46.2,0,0,0-10.4,2.4,2.4,2.4,0,0,1-2-.2,1.8,1.8,0,0,1-.8-2.1c1.3-10.9,2.2-21.8,2.6-32.6s.6-21.6.6-32.6V79.3c0-1.7,0-4.1-.1-7.2s-.2-6.2-.5-9.3a73,73,0,0,0-1.3-8.9,14.3,14.3,0,0,0-2.4-5.9,2,2,0,0,1-.6-2,2.4,2.4,0,0,1,1.9-1.4,130.3,130.3,0,0,1,28.8-3.1c3.7,0,7.2,0,10.5-.2h9.8c3.1.2,6.3.5,9.5,1a60.1,60.1,0,0,1,10.3,2.9V45a10,10,0,0,1,2.1,1l2.3,1.4-.2-.2A102,102,0,0,1,628.2,60a49.4,49.4,0,0,1,9.6,12,31.8,31.8,0,0,1,3.8,11.9,99,99,0,0,1,.8,12.3c0,1.2-.1,2.5-.1,4s-.1,2.8-.1,4.3-.1,3.1-.1,4.7-.1,3.2-.1,4.7q0,6.1-.3,12.6a85.2,85.2,0,0,0,.6,12.5,37.1,37.1,0,0,0,2.8,10.9A16.9,16.9,0,0,0,651.9,157.6Z" fill="#fff"/><path d="M770.2,101.7a58.1,58.1,0,0,1-5.2,25.1,59.4,59.4,0,0,1-13.6,18.9,57.3,57.3,0,0,1-19.3,11.9,62.7,62.7,0,0,1-22.1,4.1,47.1,47.1,0,0,1-21.3-4.6,41,41,0,0,1-14.6-12.4,53.3,53.3,0,0,1-8.4-18,87.7,87.7,0,0,1-2.6-21.4,76.2,76.2,0,0,1,1.4-13.9,87.7,87.7,0,0,1,4.2-14.1,61.4,61.4,0,0,1,6.7-12.7,37.2,37.2,0,0,1,9-9.5,80.1,80.1,0,0,1,7.5-4.3,66.3,66.3,0,0,1,9.6-4.4l-4.5-.2-4.2-.2-14.1-.6a11.4,11.4,0,0,0-3.7,0l-3.8.4h.2l-2,.2h-3.5l-1.8-.3-1.8-.7a1.4,1.4,0,0,1-.8-1.4,1.8,1.8,0,0,1,1.2-1.9,31.3,31.3,0,0,0,7.9-5.3,46.6,46.6,0,0,0,6.8-7.2,68.5,68.5,0,0,0,5.8-8.3c1.8-2.9,3.4-5.8,4.9-8.7a2.1,2.1,0,0,1,2-1.4,2.2,2.2,0,0,1,2.1,1.4,6.2,6.2,0,0,1,.5,2.7c-.1.9-.2,1.8-.3,2.4a1.7,1.7,0,0,0-.2.8,20.3,20.3,0,0,0,4,8.5,32,32,0,0,0,6.8,5.8,41.5,41.5,0,0,0,8.8,4c3.2,1.1,6.5,2.1,10,3.1A161.5,161.5,0,0,1,738.9,45a47.4,47.4,0,0,1,15.6,9.7,48.7,48.7,0,0,1,11.3,17.7C768.8,79.9,770.2,89.6,770.2,101.7Zm-27.4,5.9a82.3,82.3,0,0,0,.3-17.2,69.5,69.5,0,0,0-3.3-16.2,43.5,43.5,0,0,0-7.1-13.3,29.6,29.6,0,0,0-11.3-8.8H721l-1-.2h-1.6l-2.7-.4c-5.5,0-10.1,1.5-13.7,4.4a31.8,31.8,0,0,0-8.6,11.4,53.1,53.1,0,0,0-4.5,15.4,116,116,0,0,0-1.2,16.3,79.6,79.6,0,0,0,5.5,30.2c3.6,9.2,10.3,16.8,20.1,22.9a1.8,1.8,0,0,0,.8.5,1.4,1.4,0,0,1,.8.5c4.5,2.6,8.4,2.6,11.6.1s6-6.2,8.2-11.3a72.9,72.9,0,0,0,5.2-16.9C741.2,118.5,742.1,112.7,742.8,107.6Z" fill="#fff"/><path d="M936.9,161.5a51,51,0,0,1-8.6-.8,43.9,43.9,0,0,0-8.9-.3l-7.7.7a67.4,67.4,0,0,1-7.7.4c-1.4,0-2.1-.8-2.1-2.3,0-5.5.1-11,.2-16.4s.4-11,.7-16.7.4-10.6.6-16.4.2-11.2.2-16.3-.2-10.3-.6-15.5A52.6,52.6,0,0,0,900.1,64a22.8,22.8,0,0,0-7-10.1c-3.2-2.6-7.5-3.8-12.9-3.8a24.7,24.7,0,0,0-8.6,1.5,19.7,19.7,0,0,0-7.4,4.6,21.5,21.5,0,0,0-5,7.4,24.1,24.1,0,0,0-2,10v39.5c0,3.9.1,8,.1,12.3s.3,8.4.6,12.6.9,8,1.6,11.6a29.4,29.4,0,0,0,2.8,8.8,2,2,0,0,1,0,2.1,2.3,2.3,0,0,1-2,1l-6.3-.9a23.7,23.7,0,0,0-6.5-.2l-5.6.6a52.5,52.5,0,0,1-5.6.3h-1a2.2,2.2,0,0,1-2.2-1.6,1.8,1.8,0,0,1,.9-2.3c.6-.4,1-2.2,1.3-5.5s.5-7.3.7-12.2.3-10.2.4-16,.1-11.2.1-16.5c0-3.8,0-7.4-.1-10.8s-.1-6.2-.1-8.5v-12l-.4-33.4c0-2-.1-4-.1-6.1s-.3-3.9-.5-5.8a17.8,17.8,0,0,0-1.6-5.1,10.3,10.3,0,0,0-3.5-4.3,29.2,29.2,0,0,1-4.7-4.2,28,28,0,0,0-4.9-4.3,1.2,1.2,0,0,1-.1-1.9,2.8,2.8,0,0,1,2.2-1,38.7,38.7,0,0,0,7.6-.9c2.9-.6,5.8-1.4,8.8-2.3s6-2,8.9-3.2L855.6.3c1.9-.7,2.8,0,2.8,2q0,9.6-.6,18.9c-.4,6.4-.6,12.6-.6,18.7,0,1.5,0,3.2-.1,5.2s-.2,3.5-.3,4.6a49.6,49.6,0,0,1,4.9-2.3,77,77,0,0,1,8.5-2.8c3.4-1,7.3-1.8,11.6-2.6a91.6,91.6,0,0,1,14.4-1.1A67.2,67.2,0,0,1,908.3,42a26.2,26.2,0,0,1,10.1,4.1,20.1,20.1,0,0,1,6.8,8.3c1.7,3.6,2.6,8.3,2.6,14s-.1,11.8-.3,17.6-.5,11.7-.8,17.5-.5,12.2-.7,18.7-.3,12.8-.3,18.9.7,8.4,2.2,10.8,4.3,3.8,8.8,4.1a1.9,1.9,0,0,1,2.2,2.2l.2,1.2C939.1,160.8,938.4,161.5,936.9,161.5Z" fill="#fff"/><path d="M1053.4,102.7q0,18.1-6,30a52,52,0,0,1-15.8,19,62.7,62.7,0,0,1-22.4,10.1,119.3,119.3,0,0,1-26.1,2.9,29.9,29.9,0,0,1-18.1-5.5,44.5,44.5,0,0,1-12.9-14,69.2,69.2,0,0,1-7.9-18.9,84,84,0,0,1-2.6-20.1c0-10.3,1.4-19.5,4.4-27.4a56.6,56.6,0,0,1,12.2-20,52.4,52.4,0,0,1,18.9-12.3,65.7,65.7,0,0,1,24-4.2q26.2,0,39.3,15.6C1049,68.3,1053.4,83.2,1053.4,102.7Zm-25.2,12.4a159.7,159.7,0,0,0-1.6-20.5,97.4,97.4,0,0,0-5.6-21.4,51.3,51.3,0,0,0-10.5-16.6c-4.3-4.5-9.8-6.7-16.5-6.7s-10.3,1.5-13.9,4.6a33.1,33.1,0,0,0-8.5,11.8A55.9,55.9,0,0,0,967.3,82a117.8,117.8,0,0,0-1.1,16.4,76.1,76.1,0,0,0,2.7,19.8,69.7,69.7,0,0,0,7.9,18,45.9,45.9,0,0,0,12.6,13.3,28.1,28.1,0,0,0,16.6,5c4.8,0,8.6-1.2,11.5-3.6a23.8,23.8,0,0,0,6.7-9.4,48.2,48.2,0,0,0,3.2-12.7A127.3,127.3,0,0,0,1028.2,115.1Z" fill="#fff"/><path d="M1179.4,156.6a1.8,1.8,0,0,1,1.5,2.2,1.8,1.8,0,0,1-1.7,2,7.7,7.7,0,0,1-2.6.1,10.7,10.7,0,0,1-2.5-.3l-1.8-.2h-1.8l-4.6.3-4.8.8-5,.7a44.5,44.5,0,0,1-5.3.3,2,2,0,0,1-2.1-1.5,9.5,9.5,0,0,1-.2-2.2v-3.9c0-1.4,0-3,.1-4.7l.3-5a6.1,6.1,0,0,1,.1-1.5c.1,0,.1-.3.1-.9-3.6,2.4-7.6,4.8-12,7.3a125.8,125.8,0,0,1-13.3,6.5,87.7,87.7,0,0,1-13.7,4.5,51.4,51.4,0,0,1-13,1.8,32.6,32.6,0,0,1-15.3-3.6,37.6,37.6,0,0,1-11.9-9.5,45,45,0,0,1-7.7-14.2,53.9,53.9,0,0,1-2.7-17.2,67.7,67.7,0,0,1,2.1-16.4c1.4-5.6,3-10.9,4.6-15.8s2.3-7.9,3.3-11.9a41.5,41.5,0,0,0,1.6-11.2c0-4-1.1-7-3.2-9.3a29.5,29.5,0,0,0-7.4-5.6l-1.2-.6a2.1,2.1,0,0,1-1.2-2,2,2,0,0,1,1.2-2l1.8-.9,12.6.8q6.3.3,12.6.3l9.4-.2,9.3-.7c1.6-.2,2.5.4,2.5,2.1l.2.6a1.9,1.9,0,0,1-.7,1.6,165,165,0,0,0-12,12.5,50.8,50.8,0,0,0-7.7,11.8,48.9,48.9,0,0,0-3.9,13.9,124.8,124.8,0,0,0-1.2,18.7,47.9,47.9,0,0,0,2.9,16.6,46.8,46.8,0,0,0,7.7,13.7,36.2,36.2,0,0,0,11.6,9.4,31.2,31.2,0,0,0,14.4,3.4c7.2,0,12.9-1.4,17.2-4.2a28.9,28.9,0,0,0,9.8-11.3,49,49,0,0,0,4.3-15.9,153.4,153.4,0,0,0,1.1-18.2V90.7c0-2.3-.1-4.6-.2-6.9a59.2,59.2,0,0,1-.2-6.1V71.4a22,22,0,0,0-.9-6.8,18.1,18.1,0,0,0-2.1-4.9,29.2,29.2,0,0,0-2.9-3.8l-3.3-3.8-2.3-2.7a18.8,18.8,0,0,1-2.2-2.6,3.3,3.3,0,0,1-.3-1.5,2.7,2.7,0,0,1,.5-1.3,3.9,3.9,0,0,1,2.4-.8h8.5l4.4.4,2.2.2h1.2a37.1,37.1,0,0,0,7.4-.7l5.5-.5a17.6,17.6,0,0,1,5.6.3c1.3.3,1.9,1,1.9,2.1,0,8-.3,15.9-.7,23.9s-1,15.9-1.6,23.8-1.2,15.8-1.7,23.6-.7,15.9-.7,24a43.6,43.6,0,0,0,1.2,10.4C1173.7,153.9,1175.9,155.9,1179.4,156.6Z" fill="#fff"/><path d="M1304.2,157.6a2.1,2.1,0,0,1,.9,2.7,1.6,1.6,0,0,1-2.1,1.4,55.7,55.7,0,0,0-6.1-1.3c-2.6-.4-5.3-.6-8.3-.8a69.8,69.8,0,0,0-9.1.3,26.8,26.8,0,0,0-8,2.2,1.5,1.5,0,0,1-1.7-.4,2.8,2.8,0,0,1-.7-1.9q0-7.5.3-15c.2-5,.4-10,.7-14.9.1-2.4.2-5.4.4-9s.3-7.2.4-11l.3-11c.1-3.5.1-6.6.1-9a25.9,25.9,0,0,0-5.8-16.9,50.9,50.9,0,0,0-14.4-11.9,83.7,83.7,0,0,0-18.6-7.3,135.1,135.1,0,0,0-18.3-3.5,65.7,65.7,0,0,0-.4,6.8c-.2,3.3-.3,6.8-.3,10.4s-.2,7.1-.2,10.3-.1,5.3-.1,6.4v42.1a44.2,44.2,0,0,0,3.2,17.4,48.5,48.5,0,0,0,9.2,14.3,2.3,2.3,0,0,1,.4,2.1,2.2,2.2,0,0,1-1.9,1.4,8.4,8.4,0,0,1-5.1-1,11.2,11.2,0,0,0-5.4-1.1l-10.8.7a47.5,47.5,0,0,0-10.4,2.4,2.4,2.4,0,0,1-2-.2,1.8,1.8,0,0,1-.8-2.1c1.3-10.9,2.2-21.8,2.6-32.6s.6-21.6.6-32.6V79.3c0-1.7,0-4.1-.1-7.2s-.2-6.2-.5-9.3a73,73,0,0,0-1.3-8.9,16,16,0,0,0-2.3-5.9c-.7-.7-.9-1.3-.6-2a2.1,2.1,0,0,1,1.8-1.4,131,131,0,0,1,28.8-3.1c3.7,0,7.2,0,10.5-.2h9.8c3.2.2,6.3.5,9.5,1a60.1,60.1,0,0,1,10.3,2.9V45a10,10,0,0,1,2.1,1l2.4,1.4-.2-.2A104.7,104.7,0,0,1,1280.5,60a49.4,49.4,0,0,1,9.6,12,34,34,0,0,1,3.9,11.9c.4,4,.7,8.1.7,12.3,0,1.2-.1,2.5-.1,4s-.1,2.8-.1,4.3-.1,3.1-.1,4.7-.1,3.2-.1,4.7c0,4.1-.1,8.3-.2,12.6a73.4,73.4,0,0,0,.5,12.5,37.1,37.1,0,0,0,2.8,10.9A16.9,16.9,0,0,0,1304.2,157.6Z" fill="#fff"/><path d="M1422.5,101.7a57.8,57.8,0,0,1-18.8,44,57.3,57.3,0,0,1-19.3,11.9,62.5,62.5,0,0,1-22,4.1,47.2,47.2,0,0,1-21.4-4.6,41.9,41.9,0,0,1-14.6-12.4,51.3,51.3,0,0,1-8.3-18,83.1,83.1,0,0,1-2.7-21.4,76.2,76.2,0,0,1,1.4-13.9,87.7,87.7,0,0,1,4.2-14.1,66.6,66.6,0,0,1,6.7-12.7,37.6,37.6,0,0,1,9.1-9.5,64.7,64.7,0,0,1,7.4-4.3,66.3,66.3,0,0,1,9.6-4.4l-4.4-.2-4.3-.2-14-.6a12.1,12.1,0,0,0-3.8,0l-3.8.4h.2l-2,.2h-3.4l-1.9-.3-1.8-.7a1.6,1.6,0,0,1-.8-1.4,1.8,1.8,0,0,1,1.2-1.9,31.3,31.3,0,0,0,7.9-5.3,46.6,46.6,0,0,0,6.8-7.2,68.5,68.5,0,0,0,5.8-8.3c1.8-2.9,3.4-5.8,4.9-8.7a2.1,2.1,0,0,1,2-1.4,2.2,2.2,0,0,1,2.1,1.4,5,5,0,0,1,.5,2.7c-.1.9-.2,1.8-.3,2.4a1.7,1.7,0,0,0-.2.8,20.3,20.3,0,0,0,4,8.5,30.3,30.3,0,0,0,6.9,5.8,38.5,38.5,0,0,0,8.7,4c3.2,1.1,6.5,2.1,10.1,3.1a167.6,167.6,0,0,1,17,5.5,47.4,47.4,0,0,1,15.6,9.7c4.7,4.4,8.4,10.3,11.4,17.7S1422.5,89.6,1422.5,101.7Zm-27.4,5.9a82.3,82.3,0,0,0,.3-17.2,69.5,69.5,0,0,0-3.3-16.2,41.5,41.5,0,0,0-7.1-13.3,29.6,29.6,0,0,0-11.3-8.8h-.4l-1-.2h-1.6l-2.6-.4c-5.6,0-10.2,1.5-13.8,4.4a33,33,0,0,0-8.6,11.4,53.1,53.1,0,0,0-4.5,15.4,116,116,0,0,0-1.2,16.3,79.6,79.6,0,0,0,5.5,30.2c3.7,9.2,10.4,16.8,20.1,22.9a2.5,2.5,0,0,0,.8.5,1.4,1.4,0,0,1,.8.5c4.5,2.6,8.4,2.6,11.6.1s6-6.2,8.3-11.3a78.1,78.1,0,0,0,5.1-16.9C1393.5,118.5,1394.4,112.7,1395.1,107.6Z" fill="#fff"/><path d="M1529.3,126.5a26.4,26.4,0,0,1-5.4,16.6,46.6,46.6,0,0,1-13.1,11.5,62,62,0,0,1-16.6,6.9,69.3,69.3,0,0,1-15.6,2.2h-12.4a47.3,47.3,0,0,1-11.3-1.6,37.3,37.3,0,0,1-11.3-5.1,29.2,29.2,0,0,1-8.7-8.8,22.4,22.4,0,0,1-3.4-12.6c.8-1.5,1.5-2.2,2.2-2.2a48,48,0,0,0,11.6-2.1,39.7,39.7,0,0,0,9.4-4.8,2.5,2.5,0,0,1,2.2-.1,1.9,1.9,0,0,1,1,1.9V131a14.8,14.8,0,0,0,3.1,9.2,29.8,29.8,0,0,0,7.4,7.2,33.9,33.9,0,0,0,9.3,4.7,27.8,27.8,0,0,0,8.7,1.6,25.1,25.1,0,0,0,6.7-.8,13.7,13.7,0,0,0,9.6-7.7,16.7,16.7,0,0,0,1.6-7.5,20.8,20.8,0,0,0-2.9-11.3,27.8,27.8,0,0,0-7.4-7.9,43.4,43.4,0,0,0-10.4-5.7c-3.8-1.6-7.8-3.1-11.9-4.6l-12.9-5a53,53,0,0,1-11.5-6.3,28.2,28.2,0,0,1-8.1-9.1,26.7,26.7,0,0,1-3-13.1c0-7,1.8-12.6,5.5-17a39.9,39.9,0,0,1,13.7-10.3,64.7,64.7,0,0,1,16.9-5,123.7,123.7,0,0,1,15.9-1.3,52.5,52.5,0,0,1,9,.9,49.2,49.2,0,0,1,10.4,3,39.4,39.4,0,0,1,9.5,5.1,20.4,20.4,0,0,1,6.5,7.5c.6,1.5.3,2.5-1.1,3-6,2.2-10.1,4-12.2,5.4s-3.4,2.7-3.7,3.9a7.8,7.8,0,0,0-.2,3.4c.2,1.2-.5,2.6-1.9,4.2a2.1,2.1,0,0,1-2.6.5,2.4,2.4,0,0,1-1.3-2.3,20.8,20.8,0,0,0-1.3-9.1,30.5,30.5,0,0,0-4.8-8.2,26.6,26.6,0,0,0-7.3-6,17.8,17.8,0,0,0-8.8-2.3h-5.1a7.2,7.2,0,0,0-3.6,1.1l-3.6,2.3a10.7,10.7,0,0,0-2.5,2.7,9.9,9.9,0,0,0-1.5,3.9,27.6,27.6,0,0,0-.5,6.3,18.6,18.6,0,0,0,2.9,10.5,31.5,31.5,0,0,0,7.8,8.1,66.1,66.1,0,0,0,11.1,6.5c4.2,2,8.3,3.9,12.5,5.6s8.4,3.6,12.4,5.5a67,67,0,0,1,10.7,6.2,31.3,31.3,0,0,1,7.4,7.6A17.8,17.8,0,0,1,1529.3,126.5Z" fill="#fff"/><path d="M454.7,259.7h8.8l38.8,92.1h-9.7l-10-24.5H433.9l-10.4,24.5h-9Zm4,9.4-21.4,50.4h42.2Z" fill="#fff"/><path d="M543.7,259.7h8.9l38.7,92.1h-9.6l-10-24.5H522.9l-10.4,24.5h-8.9Zm4.1,9.4-21.5,50.4h42.3Z" fill="#fff"/><path d="M604.6,259.7h26.5a62,62,0,0,1,10.5.9,25.1,25.1,0,0,1,9.6,3.5,20.5,20.5,0,0,1,6.9,7.4c1.7,3.2,2.6,7.4,2.6,12.5a19.6,19.6,0,0,1-4.1,12.3c-2.8,3.4-6.9,5.7-12.4,6.9v.2a24.2,24.2,0,0,1,8.3,2.2,19.2,19.2,0,0,1,6.5,4.6,20.1,20.1,0,0,1,4.3,7,27.9,27.9,0,0,1-1.6,21.8,23,23,0,0,1-7.7,7.8,29,29,0,0,1-10,3.9,52.6,52.6,0,0,1-10,1.1H604.6Zm8.6,39.8H631a30,30,0,0,0,10.8-1.6,19.5,19.5,0,0,0,6.5-4,11.6,11.6,0,0,0,3.1-5,17.9,17.9,0,0,0,.8-4.9,16.8,16.8,0,0,0-1.7-7.9,12.8,12.8,0,0,0-4.3-5.1,16.7,16.7,0,0,0-6.4-2.7,37.9,37.9,0,0,0-7.7-.8H613.2Zm0,44.5h19.6c5,0,9.1-.6,12.1-1.8a19.4,19.4,0,0,0,7.1-4.6,12.7,12.7,0,0,0,3.3-5.8,19.6,19.6,0,0,0,.9-5.5,17.6,17.6,0,0,0-7-14.6,22,22,0,0,0-7.1-3.3,31.5,31.5,0,0,0-8-1.1H613.2Z" fill="#fff"/><path d="M686.5,259.7h56.3v7.8H695v32.8h44.8v7.8H695V344h49.8v7.8H686.5Z" fill="#fff"/><path d="M763.6,259.7h11l56,80.6h.3V259.7h8.6v92.1H828.4l-56-80.6h-.3v80.6h-8.5Z" fill="#fff"/><path d="M864.7,259.7h24.2l4.9.2a44.5,44.5,0,0,1,6.8.8,43,43,0,0,1,7.4,2,21.5,21.5,0,0,1,11.7,11.1,23.7,23.7,0,0,1,1.9,10.1c0,4.4-.7,8.1-2.2,10.9a22.4,22.4,0,0,1-5.8,7,24.1,24.1,0,0,1-7.6,4,63.3,63.3,0,0,1-7.9,1.8l26.8,44.2h-9.8l-25.8-43.7h-16v43.7h-8.6Zm8.6,40.6h18.2a31,31,0,0,0,11-1.7,17.7,17.7,0,0,0,6.5-4.1,13.8,13.8,0,0,0,3.2-5.4,17.2,17.2,0,0,0,.9-5.2,17.8,17.8,0,0,0-.9-5.2,12.8,12.8,0,0,0-3.2-5.3,17.8,17.8,0,0,0-6.5-4.2,31,31,0,0,0-11-1.7H873.3Z" fill="#fff"/><path d="M970,259.7h8.8l38.8,92.1H1008l-10.1-24.5H949.2l-10.4,24.5h-9Zm4,9.4-21.4,50.4h42.2Z" fill="#fff"/><path d="M1059,259.7h8.9l38.7,92.1H1097l-10-24.5h-48.8l-10.4,24.5h-8.9Zm4.1,9.4-21.5,50.4h42.3Z" fill="#fff"/></svg>